<svg xmlns="http://www.w3.org/2000/svg" viewBox="0 0 32 32" width="20" height="20" fill="none">
  <path fill="#25D366" d="M16 3c7.18 0 13 5.59 13 12.5S23.18 28 16 28c-2.2 0-4.26-.5-6.06-1.39L4 28l1.47-5.58A12 12 0 0 1 3 15.5C3 8.59 8.82 3 16 3Z"/>
  <path fill="#fff" d="M22.8 19.24c-.13.36-.77.69-1.08.73-.3.04-.69.06-1.1-.07-.25-.08-.58-.19-1-.37-1.74-.76-2.87-2.53-2.96-2.65-.09-.12-.71-.95-.71-1.82s.44-1.29.6-1.47c.16-.18.35-.23.46-.23.12 0 .23 0 .33.01.1.01.26-.04.41.31.15.36.52 1.24.56 1.33.05.09.07.2.01.32-.06.12-.09.19-.18.29-.09.11-.19.24-.27.32-.09.09-.18.19-.08.37.09.18.4.66.86 1.07.59.52 1.08.68 1.26.76.18.08.28.07.38-.05.1-.12.44-.51.56-.69.12-.18.24-.14.4-.08.16.06 1.03.49 1.2.58.18.09.29.14.33.22.04.08.04.41-.09.77Z"/>
</svg>